TITLE ""
FILE "2Q_t_0153-0170.mp3" MP3
  TRACK 01 AUDIO
    TITLE "2Q_t_0153-0170_01"
    INDEX 01 00:00:00
  TRACK 02 AUDIO
    TITLE "2Q_t_0153-0170_02"
    INDEX 01 00:01:41
  TRACK 03 AUDIO
    TITLE "2Q_t_0153-0170_03"
    INDEX 01 00:02:17
  TRACK 04 AUDIO
    TITLE "2Q_t_0153-0170_04"
    INDEX 01 00:04:24
  TRACK 05 AUDIO
    TITLE "2Q_t_0153-0170_05"
    INDEX 01 00:04:67
  TRACK 06 AUDIO
    TITLE "2Q_t_0153-0170_06"
    INDEX 01 00:06:11
  TRACK 07 AUDIO
    TITLE "2Q_t_0153-0170_07"
    INDEX 01 00:06:56
  TRACK 08 AUDIO
    TITLE "2Q_t_0153-0170_08"
    INDEX 01 00:08:63
  TRACK 09 AUDIO
    TITLE "2Q_t_0153-0170_09"
    INDEX 01 00:09:33
  TRACK 10 AUDIO
    TITLE "2Q_t_0153-0170_10"
    INDEX 01 00:10:46
  TRACK 11 AUDIO
    TITLE "2Q_t_0153-0170_11"
    INDEX 01 00:11:24
  TRACK 12 AUDIO
    TITLE "2Q_t_0153-0170_12"
    INDEX 01 00:12:41
  TRACK 13 AUDIO
    TITLE "2Q_t_0153-0170_13"
    INDEX 01 00:13:11
  TRACK 14 AUDIO
    TITLE "2Q_t_0153-0170_14"
    INDEX 01 00:14:16
  TRACK 15 AUDIO
    TITLE "2Q_t_0153-0170_15"
    INDEX 01 00:14:63
  TRACK 16 AUDIO
    TITLE "2Q_t_0153-0170_16"
    INDEX 01 00:16:64
  TRACK 17 AUDIO
    TITLE "2Q_t_0153-0170_17"
    INDEX 01 00:17:34
  TRACK 18 AUDIO
    TITLE "2Q_t_0153-0170_18"
    INDEX 01 00:18:61
  TRACK 19 AUDIO
    TITLE "2Q_t_0153-0170_19"
    INDEX 01 00:19:37
  TRACK 20 AUDIO
    TITLE "2Q_t_0153-0170_20"
    INDEX 01 00:22:61
  TRACK 21 AUDIO
    TITLE "2Q_t_0153-0170_21"
    INDEX 01 00:23:33
  TRACK 22 AUDIO
    TITLE "2Q_t_0153-0170_22"
    INDEX 01 00:24:38
  TRACK 23 AUDIO
    TITLE "2Q_t_0153-0170_23"
    INDEX 01 00:25:14
  TRACK 24 AUDIO
    TITLE "2Q_t_0153-0170_24"
    INDEX 01 00:27:07
  TRACK 25 AUDIO
    TITLE "2Q_t_0153-0170_25"
    INDEX 01 00:27:50
  TRACK 26 AUDIO
    TITLE "2Q_t_0153-0170_26"
    INDEX 01 00:29:10
  TRACK 27 AUDIO
    TITLE "2Q_t_0153-0170_27"
    INDEX 01 00:29:55
  TRACK 28 AUDIO
    TITLE "2Q_t_0153-0170_28"
    INDEX 01 00:31:15
  TRACK 29 AUDIO
    TITLE "2Q_t_0153-0170_29"
    INDEX 01 00:31:62
  TRACK 30 AUDIO
    TITLE "2Q_t_0153-0170_30"
    INDEX 01 00:33:31
  TRACK 31 AUDIO
    TITLE "2Q_t_0153-0170_31"
    INDEX 01 00:34:03
  TRACK 32 AUDIO
    TITLE "2Q_t_0153-0170_32"
    INDEX 01 00:36:18
  TRACK 33 AUDIO
    TITLE "2Q_t_0153-0170_33"
    INDEX 01 00:36:65
  TRACK 34 AUDIO
    TITLE "2Q_t_0153-0170_34"
    INDEX 01 00:37:74
  TRACK 35 AUDIO
    TITLE "2Q_t_0153-0170_35"
    INDEX 01 00:38:48
  TRACK 36 AUDIO
    TITLE "2Q_t_0153-0170_36"
    INDEX 01 00:41:66
  TRACK 37 AUDIO
    TITLE "2Q_t_0153-0170_37"
    INDEX 01 00:42:34
  TRACK 38 AUDIO
    TITLE "2Q_t_0153-0170_38"
    INDEX 01 00:43:41
  TRACK 39 AUDIO
    TITLE "2Q_t_0153-0170_39"
    INDEX 01 00:44:12
  TRACK 40 AUDIO
    TITLE "2Q_t_0153-0170_40"
    INDEX 01 00:45:15
  TRACK 41 AUDIO
    TITLE "2Q_t_0153-0170_41"
    INDEX 01 00:45:60
  TRACK 42 AUDIO
    TITLE "2Q_t_0153-0170_42"
    INDEX 01 00:47:10
  TRACK 43 AUDIO
    TITLE "2Q_t_0153-0170_43"
    INDEX 01 00:47:63
  TRACK 44 AUDIO
    TITLE "2Q_t_0153-0170_44"
    INDEX 01 00:50:24
  TRACK 45 AUDIO
    TITLE "2Q_t_0153-0170_45"
    INDEX 01 00:50:69
  TRACK 46 AUDIO
    TITLE "2Q_t_0153-0170_46"
    INDEX 01 00:52:01
  TRACK 47 AUDIO
    TITLE "2Q_t_0153-0170_47"
    INDEX 01 00:52:46
  TRACK 48 AUDIO
    TITLE "2Q_t_0153-0170_48"
    INDEX 01 00:54:35
  TRACK 49 AUDIO
    TITLE "2Q_t_0153-0170_49"
    INDEX 01 00:55:03
  TRACK 50 AUDIO
    TITLE "2Q_t_0153-0170_50"
    INDEX 01 00:56:40
  TRACK 51 AUDIO
    TITLE "2Q_t_0153-0170_51"
    INDEX 01 00:57:14
  TRACK 52 AUDIO
    TITLE "2Q_t_0153-0170_52"
    INDEX 01 01:00:50
  TRACK 53 AUDIO
    TITLE "2Q_t_0153-0170_53"
    INDEX 01 01:01:20
  TRACK 54 AUDIO
    TITLE "2Q_t_0153-0170_54"
    INDEX 01 01:02:47
  TRACK 55 AUDIO
    TITLE "2Q_t_0153-0170_55"
    INDEX 01 01:03:19
  TRACK 56 AUDIO
    TITLE "2Q_t_0153-0170_56"
    INDEX 01 01:05:45
  TRACK 57 AUDIO
    TITLE "2Q_t_0153-0170_57"
    INDEX 01 01:06:15
  TRACK 58 AUDIO
    TITLE "2Q_t_0153-0170_58"
    INDEX 01 01:07:38
  TRACK 59 AUDIO
    TITLE "2Q_t_0153-0170_59"
    INDEX 01 01:08:24
  TRACK 60 AUDIO
    TITLE "2Q_t_0153-0170_60"
    INDEX 01 01:09:43
  TRACK 61 AUDIO
    TITLE "2Q_t_0153-0170_61"
    INDEX 01 01:10:13
  TRACK 62 AUDIO
    TITLE "2Q_t_0153-0170_62"
    INDEX 01 01:11:28
  TRACK 63 AUDIO
    TITLE "2Q_t_0153-0170_63"
    INDEX 01 01:12:04
  TRACK 64 AUDIO
    TITLE "2Q_t_0153-0170_64"
    INDEX 01 01:13:48
  TRACK 65 AUDIO
    TITLE "2Q_t_0153-0170_65"
    INDEX 01 01:14:18
  TRACK 66 AUDIO
    TITLE "2Q_t_0153-0170_66"
    INDEX 01 01:15:41
  TRACK 67 AUDIO
    TITLE "2Q_t_0153-0170_67"
    INDEX 01 01:16:13
  TRACK 68 AUDIO
    TITLE "2Q_t_0153-0170_68"
    INDEX 01 01:18:16
  TRACK 69 AUDIO
    TITLE "2Q_t_0153-0170_69"
    INDEX 01 01:18:61
  TRACK 70 AUDIO
    TITLE "2Q_t_0153-0170_70"
    INDEX 01 01:20:13
  TRACK 71 AUDIO
    TITLE "2Q_t_0153-0170_71"
    INDEX 01 01:20:58
  TRACK 72 AUDIO
    TITLE "2Q_t_0153-0170_72"
    INDEX 01 01:21:64
